<?xml version="1.0" standalone="no"?><!DOCTYPE svg PUBLIC "-//W3C//DTD SVG 1.1//EN" "http://www.w3.org/Graphics/SVG/1.1/DTD/svg11.dtd"><svg t="1723590312133" class="icon" viewBox="0 0 1236 1024" version="1.1" xmlns="http://www.w3.org/2000/svg" p-id="4441" width="154.5" height="128" xmlns:xlink="http://www.w3.org/1999/xlink"><path d="M1043.320755 0c106.534642 0 193.207547 87.088302 193.207547 194.125283v388.250566c0 26.797887-21.619925 48.524075-48.301887 48.524076s-48.301887-21.726189-48.301887-48.533736v-388.250566c0-53.518491-43.336453-97.057811-96.603773-97.057812H193.207547c-53.267321 0-96.603774 43.548981-96.603773 97.067472v633.324679c0 53.518491 43.336453 97.057811 96.603773 97.057812h850.113208c53.267321 0 96.603774-43.539321 96.603773-97.057812 0-26.807547 21.619925-48.533736 48.301887-48.533736s48.301887 21.735849 48.301887 48.533736c0 107.036981-86.672906 194.125283-193.207547 194.125283H193.207547c-106.534642 0-193.207547-87.088302-193.207547-194.125283v-633.334339C0 87.088302 86.672906 0 193.207547 0zM227.018868 269.350642c26.681962 0 48.301887 21.726189 48.301887 48.524075v380.966641c0 26.807547-21.619925 48.533736-48.301887 48.533736s-48.301887-21.735849-48.301887-48.533736V317.874717c0-26.797887 21.619925-48.524075 48.301887-48.524075z m301.017358 0c67.06234 0 121.624151 53.460528 121.624151 119.180075 0 26.797887-21.619925 48.524075-48.301886 48.524075s-48.301887-21.726189-48.301887-48.524075c0-13.852981-12.722717-22.122264-25.020378-22.122264h-41.858415c-22.383094 0-39.259774 16.384-39.259773 38.110189v6.559396c0 22.141585 17.610868 40.148528 39.259773 40.148528h44.263849c75.061132 0 136.124377 61.275774 136.124378 136.597736v23.059321c0 75.177057-59.797736 134.066717-136.124378 134.066717h-71.931169c-67.57434 0-120.493887-52.23366-120.493887-118.899925 0-26.807547 21.619925-48.533736 48.301887-48.533736s48.301887 21.735849 48.301886 48.533736c0 14.336 12.017509 21.832453 23.890114 21.832453h71.931169c22.528 0 39.520604-15.910642 39.520604-36.999245v-23.059321a39.578566 39.578566 0 0 0-39.520604-39.539925h-44.263849c-74.916226 0-135.863547-61.546264-135.863547-137.206339v-6.559396c0-36.680453 14.249057-70.878189 40.109887-96.313963 25.493736-25.059019 59.498264-38.854038 95.75366-38.854037z m367.963774 0c95.879245 0 173.886792 78.374642 173.886792 174.707924v126.174189c0 96.342943-78.007547 174.717585-173.886792 174.717585s-173.886792-78.374642-173.886792-174.717585V444.058566c0-96.333283 78.007547-174.707925 173.886792-174.707924z m0 97.057811c-42.611925 0-77.283019 34.835321-77.283019 77.650113v126.174189c0 42.824453 34.671094 77.650113 77.283019 77.650113s77.283019-34.82566 77.283019-77.650113V444.058566c0-42.814792-34.671094-77.650113-77.283019-77.650113z" p-id="4442" fill="#cccccc"></path></svg>